<?xml version="1.0" encoding="UTF-8" standalone="no"?>
<svg
   width="500"
   height="500"
   viewBox="0 0 800 800"
   version="1.1"
   id="svg46"
   sodipodi:docname="endless-constellation.svg"
   inkscape:version="1.2.2 (b0a8486541, 2022-12-01)"
   xmlns:inkscape="http://www.inkscape.org/namespaces/inkscape"
   xmlns:sodipodi="http://sodipodi.sourceforge.net/DTD/sodipodi-0.dtd"
   xmlns="http://www.w3.org/2000/svg"
   xmlns:svg="http://www.w3.org/2000/svg">
  <defs
     id="defs50" />
  <sodipodi:namedview
     id="namedview48"
     pagecolor="#ffffff"
     bordercolor="#000000"
     borderopacity="0.25"
     inkscape:showpageshadow="2"
     inkscape:pageopacity="0.0"
     inkscape:pagecheckerboard="0"
     inkscape:deskcolor="#d1d1d1"
     showgrid="false"
     inkscape:zoom="1.714"
     inkscape:cx="225.49592"
     inkscape:cy="250.58343"
     inkscape:window-width="1920"
     inkscape:window-height="1011"
     inkscape:window-x="0"
     inkscape:window-y="0"
     inkscape:window-maximized="1"
     inkscape:current-layer="svg46" />
  <path
     id="path4"
     style="color:#000000;fill:#ffffff;stroke:none;stroke-width:1;-inkscape-stroke:none;fill-opacity:0.2"
     d="M 16.584375 0 L 123.00625 77.571875 A 5 5 0 0 1 123.4 76.621875 L 18.278125 0 L 16.584375 0 z M 101.70625 0 L 125.1625 75.7625 A 5 5 0 0 1 126.09375 75.375 L 102.75625 0 L 101.70625 0 z M 241.59688 0 L 130.28438 76.296875 A 5 5 0 0 1 130.53438 76.465625 A 5 5 0 0 1 130.93438 77.065625 L 243.36563 0 L 241.59688 0 z M 313.58438 0 L 367.35938 101.09688 A 5 5 0 0 1 368.28438 100.7125 L 314.71563 0 L 313.58438 0 z M 424.34063 0 L 573.45312 40.90625 A 5 5 0 0 1 573.8375 39.978125 L 428.1125 0 L 424.34063 0 z M 564.35312 0 L 576.42188 37.653125 A 5 5 0 0 1 577.35 37.26875 L 565.4 0 L 564.35312 0 z M 639.05313 0 L 582.14062 39.371875 A 5 5 0 0 1 582.61875 40.0875 A 5 5 0 0 1 582.65 40.2375 L 640.8125 0 L 639.05313 0 z M 582.91875 41.59375 A 5 5 0 0 1 583 42 A 5 5 0 0 1 582.75937 42.58125 L 800 66.5125 L 800 65.50625 L 582.91875 41.59375 z M 573.12813 42.3125 L 374.60313 103.06563 A 5 5 0 0 1 374.61875 103.0875 A 5 5 0 0 1 374.8125 104.05313 L 573.51562 43.24375 A 5 5 0 0 1 573.12813 42.3125 z M 581.76562 44.975 A 5 5 0 0 1 581.53438 45.534375 A 5 5 0 0 1 581.09063 45.71875 L 765.2375 226.01562 A 5 5 0 0 1 765.46563 225.46563 A 5 5 0 0 1 765.91563 225.27813 L 581.76562 44.975 z M 576.19063 46.25 L 539.32812 264.06563 A 5 5 0 0 1 540.30938 264.2625 L 577.13437 46.640625 A 5 5 0 0 1 576.19063 46.25 z M 0 65.384375 L 0 66.390625 L 122.19063 79.5375 A 5 5 0 0 1 122.59063 78.575 L 0 65.384375 z M 131.9125 79.5625 A 5 5 0 0 1 132 80 A 5 5 0 0 1 131.76875 80.55625 L 365.00938 104.97813 A 5 5 0 0 1 365.40625 104.01875 L 131.9125 79.5625 z M 122.91563 82.2125 L 0 198.88438 L 0 200.26562 L 123.32812 83.2 A 5 5 0 0 1 122.91563 82.2125 z M 129.74062 83.8625 A 5 5 0 0 1 128.80625 84.25 L 234.10313 257.20312 A 5 5 0 0 1 235.0375 256.8125 L 129.74062 83.8625 z M 373.77188 107.9625 A 5 5 0 0 1 373.53438 108.53438 A 5 5 0 0 1 373.10625 108.7125 L 535.22812 266.0375 A 5 5 0 0 1 535.46563 265.46562 A 5 5 0 0 1 535.89375 265.2875 L 373.77188 107.9625 z M 366.42188 108.425 L 239.78438 256.96562 A 5 5 0 0 1 240.53438 257.46562 A 5 5 0 0 1 240.59375 257.55625 L 367.3375 108.89688 A 5 5 0 0 1 366.46563 108.53438 A 5 5 0 0 1 366.42188 108.425 z M 800 199.08125 L 772.23438 225.26562 A 5 5 0 0 1 772.53438 225.46563 A 5 5 0 0 1 772.89688 226.00938 L 800 200.45312 L 800 199.08125 z M 773.96563 229.08438 A 5 5 0 0 1 773.56563 230.04688 L 800 233.19375 L 800 232.18438 L 773.96563 229.08438 z M 764.14062 229.3375 L 543.73438 267.67188 A 5 5 0 0 1 543.93125 268.65 L 764.53125 230.28438 A 5 5 0 0 1 764.14062 229.3375 z M 0 232.19688 L 0 233.20625 L 232.0375 260.9125 A 5 5 0 0 1 232.43438 259.95 L 0 232.19688 z M 772.6 232.37813 A 5 5 0 0 1 772.53438 232.53438 A 5 5 0 0 1 771.70938 232.875 L 800 265.42188 L 800 263.9 L 772.6 232.37813 z M 241.925 260.63125 A 5 5 0 0 1 242 261 A 5 5 0 0 1 241.74063 261.62813 L 534.15313 269.37187 A 5 5 0 0 1 534 269 A 5 5 0 0 1 534.25937 268.375 L 241.925 260.63125 z M 240.96563 263.49687 A 5 5 0 0 1 240.56563 264.45938 L 386.03438 379.50625 A 5 5 0 0 1 386.43438 378.54063 L 240.96563 263.49687 z M 233.15 263.775 L 105.34063 378.33438 A 5 5 0 0 1 105.53438 378.46563 A 5 5 0 0 1 105.96875 379.11563 L 233.7 264.63125 A 5 5 0 0 1 233.46563 264.53438 A 5 5 0 0 1 233.15 263.775 z M 0 263.90312 L 0 265.42188 L 98.4 378.62188 A 5 5 0 0 1 98.465625 378.46563 A 5 5 0 0 1 99.2875 378.125 L 0 263.90312 z M 543.62188 269.91563 A 5 5 0 0 1 543.2375 270.84062 L 800 350.76875 L 800 349.72813 L 543.62188 269.91563 z M 534.99688 271.40625 L 393.63438 378.61563 A 5 5 0 0 1 394.19375 379.45 L 535.39375 272.3625 A 5 5 0 0 1 534.99688 271.40625 z M 540.74375 273.27812 A 5 5 0 0 1 539.8125 273.6625 L 601.25937 488.72188 A 5 5 0 0 1 602.1875 488.3375 L 540.74375 273.27812 z M 0 349.72813 L 0 350.76875 L 97.38125 381.08438 A 5 5 0 0 1 97.7625 380.15938 L 0 349.72813 z M 106.9 381.5 A 5 5 0 0 1 107 382 A 5 5 0 0 1 106.79375 382.5 L 385.20625 382.5 A 5 5 0 0 1 385 382 A 5 5 0 0 1 385.20625 381.5 L 106.9 381.5 z M 97.475 383.14688 L 0 419.33438 L 0 420.39688 L 97.859375 384.06875 A 5 5 0 0 1 97.475 383.14688 z M 394.30313 383.67813 A 5 5 0 0 1 393.91875 384.60625 L 598.69687 491.32188 A 5 5 0 0 1 599.08125 490.39375 L 394.30313 383.67813 z M 106.04688 384.3 A 5 5 0 0 1 105.65 385.25625 L 305.03125 535.5125 A 5 5 0 0 1 305.425 534.55938 L 106.04688 384.3 z M 387.4 385.92188 L 310.84063 533.36563 A 5 5 0 0 1 310.9125 533.38125 A 5 5 0 0 1 311.69375 533.90313 L 388.33125 386.30938 A 5 5 0 0 1 387.4 385.92188 z M 100.25938 386.27813 L 40.859375 594.17188 A 5 5 0 0 1 41.84375 594.36875 L 101.1875 386.6625 A 5 5 0 0 1 100.25938 386.27813 z M 800 419.33438 L 607.44063 490.81875 A 5 5 0 0 1 607.61875 491.0875 A 5 5 0 0 1 607.75313 491.76875 L 800 420.4 L 800 419.33438 z M 598.09688 493.23438 L 313.64375 536.21563 A 5 5 0 0 1 313.84063 537.2 L 598.49063 494.1875 A 5 5 0 0 1 598.09688 493.23438 z M 607.40938 494.425 A 5 5 0 0 1 607.025 495.35 L 800 581.65625 L 800 580.5625 L 607.40938 494.425 z M 605.61563 496.91563 A 5 5 0 0 1 604.69063 497.3 L 728.38125 733.08438 A 5 5 0 0 1 729.30938 732.7 L 605.61563 496.91563 z M 600.475 496.95312 L 521.75313 655.35 A 5 5 0 0 1 521.9125 655.38125 A 5 5 0 0 1 522.61875 655.85313 L 601.40313 497.3375 A 5 5 0 0 1 600.475 496.95312 z M 304.23438 538.56875 L 44.684375 597.425 A 5 5 0 0 1 44.88125 598.40625 L 304.625 539.50313 A 5 5 0 0 1 304.23438 538.56875 z M 313.225 539.86563 A 5 5 0 0 1 312.84063 540.79688 L 515.77188 658.13438 A 5 5 0 0 1 516.15938 657.2 L 313.225 539.86563 z M 308.20938 542.67188 L 294.80625 759.08125 A 5 5 0 0 1 295 759 A 5 5 0 0 1 295.80313 759.15938 L 309.19688 542.91875 A 5 5 0 0 1 309 543 A 5 5 0 0 1 308.20938 542.67188 z M 0 580.5625 L 0 581.65625 L 35.590625 597.575 A 5 5 0 0 1 35.975 596.65313 L 0 580.5625 z M 44.1375 601.08125 A 5 5 0 0 1 43.746875 602.01875 L 290.8625 761.91875 A 5 5 0 0 1 291.25313 760.97813 L 44.1375 601.08125 z M 36.546875 602.56875 L 0 648.8375 L 0 650.44688 L 37.503125 602.96563 A 5 5 0 0 1 36.546875 602.56875 z M 41.83125 603.24063 A 5 5 0 0 1 40.903125 603.625 L 101.45938 800 L 102.50625 800 L 41.83125 603.24063 z M 800 648.83438 L 733.63125 732.8625 A 5 5 0 0 1 734.46563 733.41875 L 800 650.45 L 800 648.83438 z M 524.53438 661.12188 A 5 5 0 0 1 524.15 662.05 L 726.46563 735.875 A 5 5 0 0 1 726.85 734.95312 L 524.53438 661.12188 z M 515.6125 661.475 L 299.225 761.49688 A 5 5 0 0 1 299.61875 762.0875 A 5 5 0 0 1 299.67813 762.3875 L 515.99375 662.4 A 5 5 0 0 1 515.6125 661.475 z M 521.87188 664.225 A 5 5 0 0 1 520.94375 664.60938 L 564.09063 800 L 565.14062 800 L 521.87188 664.225 z M 726.9125 739.19688 L 638.31563 800 L 640.08438 800 L 727.30313 740.14375 A 5 5 0 0 1 726.9125 739.19688 z M 735.03438 739.32812 A 5 5 0 0 1 734.64062 740.275 L 800 787.95938 L 800 786.725 L 735.03438 739.32812 z M 299.68125 764.77188 A 5 5 0 0 1 299.29375 765.70312 L 423.73438 800 L 427.49375 800 L 299.68125 764.77188 z M 290.90938 766.19688 L 241.59688 800 L 243.36563 800 L 291.30313 767.14062 A 5 5 0 0 1 290.90938 766.19688 z M 297.64062 767.90625 A 5 5 0 0 1 296.71562 768.2875 L 313.58438 800 L 314.7125 800 L 297.64062 767.90625 z M 0 786.725 L 0 787.95938 L 16.503125 800 L 18.196875 800 L 0 786.725 z " />
  <path
     id="circle16"
     style="fill:#ffffff;stroke:none;fill-opacity:0.30000001"
     d="M 578 37 A 5 5 0 0 0 573 42 A 5 5 0 0 0 578 47 A 5 5 0 0 0 583 42 A 5 5 0 0 0 578 37 z M 127 75 A 5 5 0 0 0 122 80 A 5 5 0 0 0 127 85 A 5 5 0 0 0 132 80 A 5 5 0 0 0 127 75 z M 370 100 A 5 5 0 0 0 365 105 A 5 5 0 0 0 370 110 A 5 5 0 0 0 375 105 A 5 5 0 0 0 370 100 z M 769 224 A 5 5 0 0 0 764 229 A 5 5 0 0 0 769 234 A 5 5 0 0 0 774 229 A 5 5 0 0 0 769 224 z M 237 256 A 5 5 0 0 0 232 261 A 5 5 0 0 0 237 266 A 5 5 0 0 0 242 261 A 5 5 0 0 0 237 256 z M 539 264 A 5 5 0 0 0 534 269 A 5 5 0 0 0 539 274 A 5 5 0 0 0 544 269 A 5 5 0 0 0 539 264 z M 102 377 A 5 5 0 0 0 97 382 A 5 5 0 0 0 102 387 A 5 5 0 0 0 107 382 A 5 5 0 0 0 102 377 z M 390 377 A 5 5 0 0 0 385 382 A 5 5 0 0 0 390 387 A 5 5 0 0 0 395 382 A 5 5 0 0 0 390 377 z M 603 488 A 5 5 0 0 0 598 493 A 5 5 0 0 0 603 498 A 5 5 0 0 0 608 493 A 5 5 0 0 0 603 488 z M 309 533 A 5 5 0 0 0 304 538 A 5 5 0 0 0 309 543 A 5 5 0 0 0 314 538 A 5 5 0 0 0 309 533 z M 40 594 A 5 5 0 0 0 35 599 A 5 5 0 0 0 40 604 A 5 5 0 0 0 45 599 A 5 5 0 0 0 40 594 z M 520 655 A 5 5 0 0 0 515 660 A 5 5 0 0 0 520 665 A 5 5 0 0 0 525 660 A 5 5 0 0 0 520 655 z M 731 732 A 5 5 0 0 0 726 737 A 5 5 0 0 0 731 742 A 5 5 0 0 0 736 737 A 5 5 0 0 0 731 732 z M 295 759 A 5 5 0 0 0 290 764 A 5 5 0 0 0 295 769 A 5 5 0 0 0 300 764 A 5 5 0 0 0 295 759 z " />
</svg>
