<?xml version="1.0" encoding="UTF-8" standalone="no"?>
<!-- Created with Inkscape (http://www.inkscape.org/) -->

<svg
   width="1200"
   height="600"
   viewBox="0 0 317.5 158.75"
   version="1.1"
   id="svg227"
   inkscape:version="1.2.2 (b0a8486541, 2022-12-01)"
   sodipodi:docname="default-carousel.svg"
   xml:space="preserve"
   xmlns:inkscape="http://www.inkscape.org/namespaces/inkscape"
   xmlns:sodipodi="http://sodipodi.sourceforge.net/DTD/sodipodi-0.dtd"
   xmlns="http://www.w3.org/2000/svg"
   xmlns:svg="http://www.w3.org/2000/svg"><sodipodi:namedview
     id="namedview229"
     pagecolor="#ffffff"
     bordercolor="#000000"
     borderopacity="0.25"
     inkscape:showpageshadow="2"
     inkscape:pageopacity="0.0"
     inkscape:pagecheckerboard="0"
     inkscape:deskcolor="#d1d1d1"
     inkscape:document-units="px"
     showgrid="false"
     inkscape:zoom="1.2483333"
     inkscape:cx="600"
     inkscape:cy="300"
     inkscape:window-width="1920"
     inkscape:window-height="1011"
     inkscape:window-x="0"
     inkscape:window-y="0"
     inkscape:window-maximized="1"
     inkscape:current-layer="layer1" /><defs
     id="defs224" /><g
     inkscape:label="Layer 1"
     inkscape:groupmode="layer"
     id="layer1"><rect
       style="fill:#868e96;fill-opacity:1;stroke-width:0.75897"
       id="rect231"
       width="317.5"
       height="158.75"
       x="0"
       y="0" /><path
       d="m 170.21528,89.958333 h -22.93056 c -1.46128,0 -2.64583,-1.184561 -2.64583,-2.645834 V 71.4375 c 0,-1.461273 1.18455,-2.645833 2.64583,-2.645833 h 22.93056 c 1.46127,0 2.64583,1.18456 2.64583,2.645833 v 15.874999 c 0,1.461273 -1.18456,2.645834 -2.64583,2.645834 z M 150.81252,71.878471 c -1.70482,0 -3.08682,1.382008 -3.08682,3.086808 0,1.704795 1.382,3.086804 3.08682,3.086804 1.70479,0 3.08679,-1.382009 3.08679,-3.086804 0,-1.7048 -1.382,-3.086808 -3.08679,-3.086808 z m -2.64585,14.552082 h 21.16667 v -6.173607 l -4.82396,-4.823963 c -0.25829,-0.258299 -0.67712,-0.258299 -0.93547,0 l -7.46974,7.469796 -3.06007,-3.060073 c -0.25831,-0.258299 -0.67712,-0.258299 -0.93547,0 l -3.94196,3.942014 z"
       id="path8-3"
       style="fill:#ffffff;stroke-width:0.0551217" /></g></svg>
